# AST/ASF file generated using VICON BodyLanguage
# -----------------------------------------------
:version 1.10
:name VICON
:units
  mass 1.0
  length 0.45
  angle deg
:documentation
   .ast/.asf automatically generated from VICON data using
   VICON BodyBuilder and BodyLanguage model FoxedUp or BRILLIANT.MOD
:root
   order TX TY TZ RX RY RZ
   axis XYZ
   position 0 0 0  
   orientation 0 0 0 
:bonedata
  begin
     id 1 
     name lhipjoint
     direction 0.543289 -0.788407 0.288535 
     length 2.57127 
     axis 0 0 0  XYZ
  end
  begin
     id 2 
     name lfemur
     direction 0.34202 -0.939693 0  
     length 8.47298  
     axis 0 0 20  XYZ
    dof rx ry rz
    limits (-160.0 20.0)
           (-70.0 70.0)
           (-60.0 70.0)
  end
  begin
     id 3 
     name ltibia
     direction 0.34202 -0.939693 0   
     length 8.13367   
     axis 0 0 20   XYZ
    dof rx
    limits (-10.0 170.0)
  end
  begin
     id 4 
     name lfoot
     direction 0.114037 -0.313314 0.942778   
     length 2.67113   
     axis -90 7.62852e-016 20   XYZ
    dof rx rz
    limits (-45.0 90.0)
           (-70.0 20.0)
  end
  begin
     id 5 
     name ltoes
     direction 1.536e-011 -4.21847e-011 1   
     length 1.32217   
     axis -90 7.62852e-016 20   XYZ
    dof rx
    limits (-90.0 20.0)
  end
  begin
     id 6 
     name rhipjoint
     direction -0.571293 -0.770752 0.282074   
     length 2.63017  
     axis 0 0 0  XYZ 
  end
  begin
     id 7 
     name rfemur
     direction -0.34202 -0.939693 0   
     length 8.60885   
     axis 0 0 -20   XYZ
    dof rx ry rz
    limits (-160.0 20.0)
           (-70.0 70.0)
           (-70.0 60.0)
  end
  begin
     id 8 
     name rtibia
     direction -0.34202 -0.939693 0   
     length 8.07673   
     axis 0 0 -20   XYZ
    dof rx
    limits (-10.0 170.0)
 end
 begin
     id 9 
     name rfoot
     direction -0.121336 -0.333368 0.934956   
     length 2.81602  
     axis -90 -7.62852e-016 -20   XYZ
    dof rx rz
    limits (-45.0 90.0)
           (-20.0 70.0)
  end
  begin
     id 10 
     name rtoes
     direction -1.53491e-011 -4.21808e-011 1   
     length 1.38905   
     axis -90 -7.62852e-016 -20   XYZ
    dof rx
    limits (-90.0 20.0)
  end
  begin
     id 11 
     name lowerback
     direction 0.0136776 0.999869 -0.00861835   
     length 2.14087   
     axis 0 0 0   XYZ
    dof rx ry rz
    limits (-20.0 45.0)
           (-30.0 30.0)
           (-30.0 30.0)
  end
  begin
     id 12 
     name upperback
     direction -0.00789158 0.999804 0.0181308   
     length 2.14151   
     axis 0 0 0   XYZ
    dof rx ry rz
    limits (-20.0 45.0)
           (-30.0 30.0)
           (-30.0 30.0)
  end
  begin
     id 13 
     name thorax
     direction -0.0135231 0.999666 0.0220247   
     length 2.13644   
     axis 0 0 0   XYZ
    dof rx ry rz
    limits (-20.0 45.0)
           (-30.0 30.0)
           (-30.0 30.0)
  end
  begin
     id 14 
     name lowerneck
     direction -0.0392259 0.997317 0.0618018   
     length 1.65045   
     axis 0 0 0   XYZ
    dof rx ry rz
    limits (-20.0 45.0)
           (-30.0 30.0)
           (-30.0 30.0)
  end
  begin
     id 15 
     name upperneck
     direction 0.0765547 0.994276 -0.0745319   
     length 1.66045   
     axis 0 0 0   XYZ
    dof rx ry rz
    limits (-20.0 45.0)
           (-30.0 30.0)
           (-30.0 30.0)
  end
  begin
     id 16
     name head
     direction 0.0241564 0.999031 -0.036785  
     length 1.66594  
     axis 0 0 0   XYZ
    dof rx ry rz
    limits (-20.0 45.0)
           (-30.0 30.0)
           (-30.0 30.0)
  end
  begin
     id 17 
     name lclavicle
     direction 0.967398 0.249018 0.0461573  
     length 3.75176  
     axis 0 0 0   XYZ
    dof ry rz
    limits (-20.0 10.0)
           (0.0 20.0)
  end
  begin
     id 18 
     name lhumerus
     direction 1 -4.48963e-011 -3.05005e-027   
     length 5.93342   
     axis 180 -30 -90   XYZ
    dof rx ry rz
    limits (-60.0 90.0)
           (-90.0 90.0)
           (-90.0 90.0)
  end
  begin
     id 19
     name lradius
     direction 1 -4.48957e-011 1.07006e-026   
     length 3.94763   
     axis 180 -30 -90   XYZ
    dof rx
    limits (-10.0 170.0)
  end
  begin
     id 20
     name lwrist
     direction 1 -4.48978e-011 1.92422e-026   
     length 1.97382   
     axis -1.18182e-014 90 90   XYZ
    dof ry
    limits (-180.0 0.0)
 end
  begin
     id 21 
     name lhand
     direction 1 -4.48931e-011 3.84844e-026   
     length 0.560187   
     axis -2.45563e-014 90 90   XYZ
    dof rx rz
    limits (-90.0 90.0)
           (-45.0 45.0)
  end
  begin
     id 22 
     name lfingers
     direction 1 -4.48952e-011 7.69687e-026   
     length 0.451637   
     axis -4.91126e-014 90 90   XYZ
    dof rx
    limits (0.0 90.0)
  end
  begin
     id 23
     name lthumb
     direction 0.707107 -6.34901e-011 0.707107   
     length 0.648463   
     axis -90 45 2.85299e-015   XYZ
    dof rx rz
    limits (-45.0 45.0)
           (-45.0 45.0)
  end
  begin
     id 24 
     name rclavicle
     direction -0.965946 0.258716 0.00371831   
     length 3.63667  
     axis 0 0 0   XYZ 
    dof ry rz
    limits (-10.0 20.0)
           (-20.0 0.0)
  end
  begin
     id 25 
     name rhumerus
     direction -1 -4.48966e-011 -1.78361e-028  
     length 6.28647   
     axis 180 30 90   XYZ
    dof rx ry rz
    limits (-90.0 60.0)
           (-90.0 90.0)
           (-90.0 90.0)
  end
  begin
     id 26 
     name rradius
     direction -1 -4.48961e-011 1.05248e-026   
     length 3.81645   
     axis 180 30 90   XYZ
    dof rx
    limits (-10.0 170.0)
  end
  begin
     id 27 
     name rwrist
     direction -1 -4.48979e-011 1.92422e-026   
     length 1.90822   
     axis -1.18182e-014 -90 -90   XYZ
    dof ry
    limits (-180.0 0.0)
  end
  begin
     id 28
     name rhand
     direction -1 -4.48937e-011 3.84844e-026   
     length 0.646185   
     axis -2.45563e-014 -90 -90   XYZ
    dof rx rz
    limits (-90.0 90.0)
           (-45.0 45.0)
  end
  begin
     id 29
     name rfingers
     direction -1 -4.48953e-011 7.69687e-026   
     length 0.520971   
     axis -4.91126e-014 -90 -90   XYZ
    dof rx
    limits (0.0 90.0)
  end
  begin
     id 30
     name rthumb
     direction -0.707107 -6.3494e-011 0.707107   
     length 0.748013   
     axis -90 -45 -2.85299e-015   XYZ
    dof rx rz
    limits (-45.0 45.0)
           (-45.0 45.0)
  end
:hierarchy
  begin
    root lhipjoint rhipjoint lowerback
    lhipjoint lfemur
    lfemur ltibia
    ltibia lfoot
    lfoot ltoes
    rhipjoint rfemur
    rfemur rtibia
    rtibia rfoot
    rfoot rtoes
    lowerback upperback
    upperback thorax
    thorax lowerneck lclavicle rclavicle
    lowerneck upperneck
    upperneck head
    lclavicle lhumerus
    lhumerus lradius
    lradius lwrist
    lwrist lhand lthumb
    lhand lfingers
    rclavicle rhumerus
    rhumerus rradius
    rradius rwrist
    rwrist rhand rthumb
    rhand rfingers
  end

#!OML:ASF H:\HAZMAT1\Patient Classification 1\Patient 3\Session 1\dancer.ASF
:FULLY-SPECIFIED
:DEGREES
16
upperback 7.388190 -8.124800 0.321784
rfoot -14.451100 -23.836300
lradius 10.093000
lthumb 5.847600 52.588001
rradius 12.936400
lwrist -46.861198
rhand -26.276699 -23.045700
rhumerus 21.185900 -1.815110 -88.391701
lowerneck -8.179920 -1.441970 0.991931
lhand -20.509800 22.688700
ltibia 62.568699
head 12.795600 1.156200 -0.429525
rwrist 33.315201
lfingers 7.125020
rtoes 24.313400
lowerback 5.024140 -6.564200 4.982280
rfingers 7.125020
lclavicle -0.000000 0.000000
upperneck 34.386299 1.020180 -1.441260
rfemur -83.337196 -24.218901 48.606800
thorax 4.234900 -3.600240 -2.250710
rclavicle -0.000000 0.000000
rtibia 55.822300
lfoot -24.107201 27.227900
lhumerus 28.441000 28.799999 104.424004
rthumb 0.278502 -53.025299
root 3.584810 17.183599 6.473710 -155.300995 18.512699 -183.214005
ltoes 5.071350
lfemur -27.246700 7.667190 -15.748000
17
upperback 8.060330 -5.897040 -0.217104
rfoot -17.853399 -24.187799
lradius 24.452400
lthumb 4.758710 55.211201
rradius 29.323400
lwrist -9.631580
rhand -24.289301 -23.326799
rhumerus 83.845901 7.290490 -64.387497
lowerneck -0.175916 -2.258340 1.915630
lhand -21.637600 25.284599
ltibia 75.630600
head 10.183600 1.077590 -0.625745
rwrist -4.917390
lfingers 7.125020
rtoes 10.283700
lowerback 2.072160 -4.756330 3.624310
rfingers 7.125020
lclavicle 0.000000 -0.000000
upperneck 31.951401 0.154658 -1.307470
rfemur -72.127998 -23.890400 46.213001
thorax 6.856390 -2.462650 -2.420530
rclavicle 0.000000 -0.000000
rtibia 61.113899
lfoot -25.539000 8.078010
lhumerus 82.587898 -9.245540 67.473801
rthumb 2.197970 -53.295300
root 5.152080 17.604000 5.540830 -160.048004 20.708401 -181.473007
ltoes 0.410929
lfemur -53.656601 15.883200 -36.706501
18
upperback 6.744240 -4.163000 -0.037468
rfoot 12.836400 -5.712750
lradius 40.453400
lthumb 10.702500 43.121700
rradius 46.791000
lwrist 5.317740
rhand -16.827299 -13.526700
rhumerus 84.600700 -21.698500 -41.722000
lowerneck -1.781710 -4.346870 3.531620
lhand -15.479300 13.414300
ltibia 54.039700
head 14.250000 1.341850 -0.719825
rwrist -13.429300
lfingers 7.125020
rtoes -5.684960
lowerback 0.690871 -3.230910 6.262690
rfingers 7.125020
lclavicle -0.000000 0.000000
upperneck 40.745998 -1.308240 -0.737914
rfemur -65.513802 -31.287001 39.018600
thorax 6.200640 -1.567460 -3.694580
rclavicle -0.000000 0.000000
rtibia 70.547501
lfoot -25.642900 11.205000
lhumerus 88.435898 16.925800 41.580601
rthumb 9.402010 -43.297001
root 5.755800 18.475599 4.847670 -165.789993 23.810699 -176.324005
ltoes 15.053500
lfemur -39.279999 7.904880 -27.922400
19
upperback 0.665542 -3.800240 1.837650
rfoot 13.255000 -13.974300
lradius 41.672699
lthumb 26.011400 37.097698
rradius 55.111301
lwrist 17.900400
rhand -12.292200 -12.886300
rhumerus 62.980701 -38.505199 -30.956699
lowerneck -3.097000 -4.245200 1.194970
lhand 0.439672 8.858140
ltibia 56.526798
head 13.050200 0.663573 -0.490806
rwrist -28.502199
lfingers 7.125020
rtoes 4.676520
lowerback -1.267030 -2.804680 5.891250
rfingers 7.125020
lclavicle -0.000000 0.000000
upperneck 37.546600 -1.822870 -1.018090
rfemur -25.076401 -39.027699 16.940800
thorax 1.136190 -1.826370 -1.476810
rclavicle -0.000000 0.000000
rtibia 80.938202
lfoot -23.338499 8.403600
lhumerus 64.153198 39.518101 37.848999
rthumb 13.775500 -42.410301
root 6.362000 18.615200 4.600940 -172.354004 21.319099 -173.811005
ltoes 7.233630
lfemur -31.386400 13.936900 -23.054600
20
upperback -5.546310 -0.317419 -2.157280
rfoot -18.373699 -24.093201
lradius 38.873100
lthumb 24.483200 40.909698
rradius 55.270500
lwrist 28.556400
rhand -17.480400 -18.019800
rhumerus 41.009300 -56.345600 -26.410400
lowerneck 0.977521 -2.436580 1.538460
lhand -1.155500 12.454500
ltibia 60.194801
head -3.045100 -1.469120 -0.635456
rwrist -45.644798
lfingers 7.125020
rtoes -21.543501
lowerback -2.198570 -0.400391 5.672290
rfingers 7.125020
lclavicle 0.000000 0.000000
upperneck -8.846880 -3.122850 -1.420770
rfemur -8.534570 -27.808599 24.911800
thorax -4.591550 -0.348324 -5.440790
rclavicle 0.000000 0.000000
rtibia 55.591599
lfoot -22.779400 8.180220
lhumerus 40.853401 64.743401 26.437201
rthumb 8.771750 -47.817501
root 6.947130 18.474199 4.931070 -171.779999 31.701700 -175.240997
ltoes 1.177040
lfemur -33.280998 16.813400 -21.069599
21
upperback -6.258380 -2.226040 -2.307420
rfoot -24.868099 -15.231100
lradius 35.766800
lthumb 17.247299 46.511501
rradius 52.762001
lwrist 31.425699
rhand -17.359100 -20.874001
rhumerus 30.165501 -48.354401 -22.698099
lowerneck -0.283766 0.129984 3.921040
lhand -8.687410 17.256901
ltibia 60.396801
head -6.578230 0.795205 -1.628320
rwrist -44.825802
lfingers 7.125020
rtoes -20.058500
lowerback -3.093860 -1.805090 3.563230
rfingers 7.125020
lclavicle -0.000000 0.000000
upperneck -21.910200 1.009970 -2.675650
rfemur -8.533320 -14.912500 22.151199
thorax -4.998990 -1.230940 -4.376260
rclavicle -0.000000 0.000000
rtibia 53.447102
lfoot -21.911200 9.426630
lhumerus 42.092201 66.261703 35.734798
rthumb 8.888820 -50.666801
root 7.102820 18.424601 5.832170 -172.197006 54.556702 -176.212006
ltoes -4.792900
lfemur -30.725100 18.277700 -16.941200
22
upperback -5.957900 -4.180580 -1.045960
rfoot -21.920799 -18.037800
lradius 40.605499
lthumb 15.317200 46.191399
rradius 54.754799
lwrist 36.133801
rhand -20.210600 -22.237900
rhumerus 25.932501 -42.071602 -20.519300
lowerneck 0.448710 -1.749820 1.420620
lhand -10.692000 16.778700
ltibia 64.435699
head -6.337290 -0.831431 0.159561
rwrist -44.914799
lfingers 7.125020
rtoes -19.407600
lowerback -2.094400 -3.202400 3.913460
rfingers 7.125020
lclavicle -0.000000 -0.000000
upperneck -20.650801 -1.694250 1.016030
rfemur -18.327900 -7.949620 21.666100
thorax -5.376210 -2.257130 -3.153630
rclavicle -0.000000 -0.000000
rtibia 50.833302
lfoot -7.906690 13.392200
lhumerus 35.044899 54.221199 29.799000
rthumb 6.136510 -52.129002
root 7.272330 18.935801 6.362780 0.625467 72.223297 -5.737160
ltoes -2.575250
lfemur -26.672501 0.967747 -11.083300
23
upperback -6.196490 -4.156610 0.209259
rfoot -7.285630 -4.982420
lradius 38.938099
lthumb 16.848000 48.660702
rradius 55.261799
lwrist 37.796200
rhand -20.133301 -22.763100
rhumerus 22.111200 -40.942902 -16.226601
lowerneck -0.911072 -8.188180 -4.913400
lhand -9.102240 19.371599
ltibia 40.503399
head -5.087940 -5.179340 3.361610
rwrist -47.908501
lfingers 7.125020
rtoes -11.484300
lowerback 0.579580 -3.177740 2.450300
rfingers 7.125020
lclavicle -0.000000 0.000000
upperneck -19.561300 -10.342300 6.997280
rfemur -31.046000 0.534936 22.026400
thorax -6.937620 -2.193520 -0.867624
rclavicle -0.000000 0.000000
rtibia 45.594700
lfoot -20.594400 13.600900
lhumerus 33.062599 58.481400 26.532000
rthumb 6.211120 -52.652100
root 8.525640 19.552299 6.572660 10.129900 2.836730 -5.206820
ltoes -5.931380
lfemur -16.067699 -10.943800 -14.186200
24
upperback -5.683040 -5.867560 -2.219960
rfoot -7.461270 -15.200200
lradius 36.655800
lthumb 11.746800 51.237801
rradius 57.930199
lwrist 34.358101
rhand -23.543400 -26.579800
rhumerus 6.662170 -56.869499 0.225292
lowerneck -2.533060 -7.975900 -4.683250
lhand -14.396400 21.587200
ltibia 63.125301
head -4.336970 -5.368090 3.749440
rwrist -55.855999
lfingers 7.125020
rtoes -15.560900
lowerback 0.862931 -4.269720 1.939010
rfingers 7.125020
lclavicle 0.000000 0.000000
upperneck -18.286400 -10.167800 8.808100
rfemur -32.931599 -10.322400 28.784000
thorax -6.840780 -3.123460 -2.977070
rclavicle 0.000000 0.000000
rtibia 40.919399
lfoot -5.692200 2.876430
lhumerus 22.108999 59.360298 17.171000
rthumb 2.918340 -56.539600
root 9.857980 19.735800 7.311980 18.605301 -50.843601 -6.950470
ltoes 0.473214
lfemur -30.240999 -4.855020 -14.302900
25
upperback -4.010500 -4.728510 -2.793880
rfoot -10.628200 -1.293800
lradius 35.235802
lthumb 8.999720 56.594200
rradius 56.958599
lwrist 33.814701
rhand -25.481400 -26.908400
rhumerus 27.104200 -52.717701 -22.816099
lowerneck -1.389680 -8.161540 -4.099100
lhand -17.244200 26.806200
ltibia 42.654301
head -1.738310 -5.604030 3.985960
rwrist -53.527901
lfingers 7.125020
rtoes -4.978340
lowerback 3.738380 -3.306020 -0.320439
rfingers 7.125020
lclavicle -0.000000 -0.000000
upperneck -8.692870 -10.704300 9.843140
rfemur -53.054100 -22.691200 34.017300
thorax -6.486930 -2.444430 -2.282660
rclavicle -0.000000 -0.000000
rtibia 61.219398
lfoot -25.426600 2.458180
lhumerus 13.277200 60.672298 12.090500
rthumb 1.046620 -56.885601
root 11.448200 18.617500 9.479920 190.587006 -65.319801 -178.647995
ltoes -13.150600
lfemur -15.263600 -18.930000 -11.338100
